<svg width="2036" height="2036" viewBox="0 0 2036 2036" fill="none" xmlns="http://www.w3.org/2000/svg">
<path d="M206.656 495.88C206.656 934.683 206.656 946.542 213.063 983.724C232.605 1095.91 282.58 1193.67 361.388 1272.84C408.481 1320.6 449.487 1350.09 509.393 1379.25C555.525 1401.69 597.492 1415.79 648.108 1425.41C682.707 1431.82 684.309 1432.78 671.174 1434.07C663.165 1435.03 557.127 1435.67 435.071 1435.35C313.335 1435.03 211.781 1435.67 210.18 1436.95C207.617 1438.23 206.976 1522.21 207.296 1714.53L208.257 1989.86L484.726 1990.82L760.874 1991.46V1758.44V1525.09L770.164 1505.86C781.057 1482.79 791.949 1472.21 815.335 1461.31C849.613 1445.28 893.822 1452.98 918.17 1479.26C923.295 1485.03 948.283 1522.85 972.951 1563.56C1057.2 1700.74 1112.31 1790.81 1173.17 1890.5L1233.72 1989.86L1505.71 1990.82C1783.46 1991.78 1832.47 1990.82 1829.91 1983.77C1828.63 1980.56 1764.23 1880.24 1661.4 1721.58C1647.94 1700.74 1625.52 1666.13 1611.74 1644.65C1572.34 1583.43 1546.07 1543.04 1531.33 1520.29C1523.97 1508.75 1508.27 1484.71 1496.74 1466.76L1475.59 1433.74L1247.5 1434.07C1122.24 1434.07 1018.76 1433.42 1018.12 1432.46C1016.2 1430.86 1038.62 1402.65 1276.33 1108.09C1366.35 996.865 1401.27 953.273 1500.9 829.55C1646.66 648.451 1696.64 586.91 1725.47 551.332C1739.57 534.023 1752.06 517.676 1753.02 515.112C1754.3 511.266 1709.77 510.624 1434.91 510.624H1114.87L1007.55 645.567C948.604 719.929 897.987 783.073 895.424 786.278C892.861 789.484 862.427 827.306 828.149 870.577C793.871 913.848 764.718 949.427 763.437 949.748C761.835 949.748 760.874 746.212 760.874 497.803V45.8592H483.765H206.656V495.88Z" fill="#F54A00"/>
</svg>
